<?xml version="1.0" standalone="no"?>
<!DOCTYPE svg PUBLIC "-//W3C//DTD SVG 20010904//EN"
 "http://www.w3.org/TR/2001/REC-SVG-20010904/DTD/svg10.dtd">
<svg version="1.0" xmlns="http://www.w3.org/2000/svg"
 width="225.000000pt" height="225.000000pt" viewBox="0 0 225 225"
 preserveAspectRatio="xMidYMid meet">

<g transform="translate(0,225) scale(0.1,-0.1)"
fill="#0084ff" stroke="none">
<path d="M873 2240 c-413 -35 -673 -177 -798 -435 -72 -150 -69 -101 -72 -997
l-4 -808 1126 0 1126 0 -4 802 c-3 892 -1 857 -72 1003 -112 231 -331 369
-667 420 -123 18 -490 27 -635 15z m622 -464 c39 -9 104 -33 145 -53 60 -30
81 -48 107 -86 18 -27 37 -65 43 -85 6 -23 10 -209 10 -478 0 -496 0 -497 -72
-579 -45 -51 -111 -89 -173 -99 l-41 -7 58 -58 c42 -41 58 -65 58 -84 l0 -27
-83 0 -82 0 -85 85 -85 85 -160 0 -160 0 -85 -85 -85 -85 -92 0 c-89 0 -93 1
-93 22 0 14 23 46 61 84 l61 61 -42 7 c-103 16 -207 105 -235 199 -12 42 -15
129 -15 487 0 495 1 501 75 575 69 69 177 112 340 134 108 15 545 5 630 -13z"/>
<path d="M570 1180 l0 -280 560 0 560 0 0 280 0 280 -560 0 -560 0 0 -280z"/>
<path d="M683 775 c-90 -39 -79 -177 16 -206 74 -22 141 27 141 105 0 48 -19
80 -60 101 -35 18 -55 18 -97 0z"/>
<path d="M1463 770 c-40 -24 -53 -48 -53 -98 0 -76 68 -125 141 -103 96 29
106 168 14 207 -45 19 -64 18 -102 -6z"/>
</g>
</svg>
