<?xml version="1.0" encoding="UTF-8" standalone="no"?>
<!DOCTYPE svg PUBLIC "-//W3C//DTD SVG 20010904//EN"
              "http://www.w3.org/TR/2001/REC-SVG-20010904/DTD/svg10.dtd">

<svg xmlns="http://www.w3.org/2000/svg"
     width="7.23396in" height="5.30879in"
     viewBox="0 0 868 637">
  <path id="선택"
        fill="#999999"
        d="M 246.00,121.00
           C 246.00,121.00 246.00,56.00 246.00,56.00
             246.00,43.18 244.70,30.61 251.34,19.00
             259.81,4.18 277.20,0.02 293.00,0.00
             293.00,0.00 466.00,0.00 466.00,0.00
             466.00,0.00 562.00,0.00 562.00,0.00
             583.85,0.26 604.96,13.28 605.00,37.00
             605.00,37.00 605.00,521.00 605.00,521.00
             605.00,521.00 246.00,521.00 246.00,521.00
             246.00,521.00 246.00,121.00 246.00,121.00 Z
           M 297.00,74.00
           C 297.00,74.00 297.00,109.00 297.00,109.00
             297.00,113.57 296.35,121.01 298.57,124.91
             301.97,130.87 306.95,130.99 313.00,131.00
             313.00,131.00 497.00,131.00 497.00,131.00
             497.00,131.00 532.00,131.00 532.00,131.00
             536.67,131.00 544.03,131.76 547.90,129.11
             553.05,125.58 552.99,120.56 553.00,115.00
             553.00,115.00 553.00,72.00 553.00,72.00
             552.93,66.67 552.26,61.92 546.98,59.17
             543.63,57.43 535.05,58.00 531.00,58.09
             531.00,58.09 496.00,58.09 496.00,58.09
             496.00,58.09 370.00,58.09 370.00,58.09
             370.00,58.09 306.01,58.09 306.01,58.09
             297.36,60.90 297.01,66.08 297.00,74.00 Z
           M 27.00,147.00
           C 27.00,147.00 27.00,99.00 27.00,99.00
             27.09,80.82 38.69,66.40 56.00,61.21
             61.72,59.49 66.08,59.01 72.00,59.00
             72.00,59.00 228.00,59.00 228.00,59.00
             228.00,59.00 228.00,119.00 228.00,119.00
             228.00,119.00 116.00,119.00 116.00,119.00
             107.13,119.00 87.26,116.30 82.45,125.09
             80.80,128.12 81.01,131.67 81.00,135.00
             81.00,135.00 81.00,170.00 81.00,170.00
             81.00,174.06 80.47,182.47 82.31,185.83
             85.12,190.95 89.91,190.99 95.00,191.00
             95.00,191.00 228.00,191.00 228.00,191.00
             228.00,191.00 228.00,230.00 228.00,230.00
             228.00,230.00 116.00,230.00 116.00,230.00
             110.99,230.00 92.54,229.53 89.00,230.65
             86.12,231.56 83.71,233.33 82.31,236.04
             80.82,238.93 81.00,242.81 81.00,246.00
             81.00,246.00 81.00,286.00 81.00,286.00
             81.01,290.32 80.79,294.25 83.65,297.87
             87.16,302.32 91.91,301.99 97.00,302.00
             97.00,302.00 228.00,302.00 228.00,302.00
             228.00,302.00 228.00,338.00 228.00,338.00
             228.00,338.00 116.00,338.00 116.00,338.00
             111.07,338.00 92.39,337.44 89.00,338.74
             85.90,339.93 82.93,342.90 81.74,346.00
             80.87,348.27 81.00,351.56 81.00,354.00
             81.00,354.00 81.00,390.00 81.00,390.00
             81.00,394.72 80.29,401.88 83.01,405.81
             86.07,410.25 90.22,409.99 95.00,410.00
             95.00,410.00 228.00,410.00 228.00,410.00
             228.00,410.00 228.00,432.00 228.00,432.00
             228.00,432.00 226.98,438.40 226.98,438.40
             226.98,438.40 219.00,440.00 219.00,440.00
             219.00,440.00 27.00,440.00 27.00,440.00
             27.00,440.00 27.00,147.00 27.00,147.00 Z
           M 800.00,59.00
           C 825.25,59.04 840.96,73.38 841.00,99.00
             841.00,99.00 841.00,440.00 841.00,440.00
             841.00,440.00 625.00,440.00 625.00,440.00
             625.00,440.00 625.00,410.00 625.00,410.00
             625.00,410.00 753.00,410.00 753.00,410.00
             758.91,410.00 779.80,410.73 783.99,408.99
             787.21,407.65 789.42,405.18 790.77,402.00
             792.15,398.76 791.99,395.43 792.00,392.00
             792.00,392.00 792.00,357.00 792.00,357.00
             792.00,351.36 792.75,345.07 789.64,340.10
             786.05,334.40 781.04,334.01 775.00,334.00
             775.00,334.00 625.00,334.00 625.00,334.00
             625.00,334.00 625.00,304.00 625.00,304.00
             625.00,304.00 752.00,304.00 752.00,304.00
             752.00,304.00 772.00,304.00 772.00,304.00
             774.96,304.00 780.39,304.26 783.00,303.26
             786.92,301.76 789.96,297.94 791.20,294.00
             792.10,291.11 792.00,287.99 792.00,285.00
             792.00,285.00 792.00,243.00 792.00,243.00
             791.85,232.34 787.47,228.02 777.00,228.00
             777.00,228.00 625.00,228.00 625.00,228.00
             625.00,228.00 625.00,194.00 625.00,194.00
             625.00,194.00 753.00,194.00 753.00,194.00
             753.00,194.00 768.00,194.00 768.00,194.00
             776.93,194.00 786.83,195.24 790.85,185.00
             792.12,181.77 791.99,178.40 792.00,175.00
             792.00,175.00 792.00,142.00 792.00,142.00
             792.00,137.79 792.47,129.64 790.99,126.00
             787.89,118.36 782.35,117.01 775.00,117.00
             775.00,117.00 625.00,117.00 625.00,117.00
             625.00,117.00 625.00,59.00 625.00,59.00
             625.00,59.00 800.00,59.00 800.00,59.00 Z
           M 332.00,67.00
           C 332.00,67.00 370.00,67.00 370.00,67.00
             370.00,67.00 492.00,67.00 492.00,67.00
             492.00,67.00 525.00,67.00 525.00,67.00
             529.56,67.00 535.97,66.36 539.81,69.01
             544.25,72.07 543.99,76.22 544.00,81.00
             544.00,81.00 544.00,109.00 544.00,109.00
             543.93,113.66 543.53,116.66 539.53,119.66
             536.02,122.29 532.15,121.99 528.00,122.00
             528.00,122.00 358.00,122.00 358.00,122.00
             358.00,122.00 326.00,122.00 326.00,122.00
             321.82,122.00 314.62,122.64 311.09,120.57
             305.91,117.53 306.01,113.29 306.00,108.00
             306.00,108.00 306.00,84.00 306.00,84.00
             306.00,76.34 304.43,72.05 312.00,67.85
             317.45,66.36 326.12,67.00 332.00,67.00 Z
           M 330.06,89.98
           C 332.27,91.19 335.52,91.00 338.00,91.00
             338.00,91.00 395.00,91.00 395.00,91.00
             398.13,90.99 402.13,91.29 404.59,89.26
             408.02,86.68 408.43,80.99 404.59,78.82
             402.60,77.81 399.12,78.00 397.00,78.00
             397.00,78.00 353.00,78.00 353.00,78.00
             347.02,78.00 335.34,77.44 330.06,78.60
             325.15,81.61 324.79,87.09 330.06,89.98 Z
           M 504.00,105.65
           C 519.36,103.08 518.52,79.04 500.00,80.35
             481.84,85.15 488.81,108.18 504.00,105.65 Z
           M 444.47,93.00
           C 443.33,98.33 448.67,103.67 454.00,102.53
             463.44,100.51 463.06,85.91 451.00,86.47
             447.72,87.74 445.28,89.24 444.47,93.00 Z
           M 465.47,93.00
           C 464.33,98.33 469.67,103.67 475.00,102.53
             484.44,100.51 484.06,85.91 472.00,86.47
             468.72,87.74 466.28,89.24 465.47,93.00 Z
           M 329.15,109.83
           C 331.48,111.21 335.33,111.00 338.00,111.00
             338.00,111.00 396.00,111.00 396.00,111.00
             398.54,111.00 402.44,111.24 404.61,109.83
             408.78,107.11 408.02,101.50 403.89,99.17
             401.44,97.79 397.77,98.00 395.00,98.14
             395.00,98.14 355.00,98.14 355.00,98.14
             355.00,98.14 332.00,98.14 332.00,98.14
             325.92,100.91 323.97,106.76 329.15,109.83 Z
           M 124.00,133.00
           C 124.00,133.00 177.00,133.00 177.00,133.00
             179.34,133.00 182.81,132.81 184.85,134.02
             188.66,136.29 188.01,140.76 183.94,142.40
             182.18,143.11 178.95,143.00 177.00,143.00
             177.00,143.00 105.00,143.00 105.00,143.00
             99.17,142.96 91.56,140.39 98.23,134.02
             103.43,132.12 117.73,133.00 124.00,133.00 Z
           M 647.96,136.31
           C 649.80,139.23 648.02,142.61 644.89,143.79
             644.89,143.79 626.00,143.79 626.00,143.79
             626.00,143.79 626.00,134.00 626.00,134.00
             630.36,134.00 645.71,132.74 647.96,136.31 Z
           M 757.00,168.47
           C 740.76,172.22 731.76,147.70 751.00,141.53
             770.29,138.54 773.75,164.60 757.00,168.47 Z
           M 698.00,163.53
           C 690.67,165.09 682.55,154.00 694.02,147.75
             706.37,145.43 708.17,161.35 698.00,163.53 Z
           M 723.00,163.53
           C 715.67,165.09 707.55,154.00 719.02,147.75
             731.37,145.43 733.17,161.35 723.00,163.53 Z
           M 125.00,150.00
           C 125.00,150.00 176.00,150.00 176.00,150.00
             178.60,150.00 182.53,149.78 184.76,151.17
             188.13,153.26 188.06,157.46 184.76,159.55
             182.11,161.20 178.02,161.00 175.00,161.00
             175.00,161.00 107.00,161.00 107.00,161.00
             97.32,160.88 91.49,155.84 99.11,150.85
             104.68,149.26 118.51,150.00 125.00,150.00 Z
           M 643.98,151.11
           C 646.48,151.69 649.14,153.08 649.14,156.00
             649.14,158.92 646.48,160.31 643.98,160.89
             643.98,160.89 626.00,160.89 626.00,160.89
             626.00,160.89 626.00,151.11 626.00,151.11
             626.00,151.11 643.98,151.11 643.98,151.11 Z
           M 296.00,185.00
           C 296.00,185.00 296.00,224.00 296.00,224.00
             296.07,229.28 297.06,234.85 301.33,238.49
             304.62,241.30 308.95,240.99 313.00,241.00
             313.00,241.00 497.00,241.00 497.00,241.00
             497.00,241.00 533.00,241.00 533.00,241.00
             537.58,241.00 545.09,241.83 548.75,238.97
             553.04,235.63 552.99,229.89 553.00,225.00
             553.00,225.00 553.00,182.00 553.00,182.00
             552.92,176.26 551.87,171.46 545.98,169.01
             542.44,167.53 534.13,168.00 530.00,168.08
             530.00,168.08 496.00,168.08 496.00,168.08
             496.00,168.08 370.00,168.08 370.00,168.08
             370.00,168.08 329.00,168.08 329.00,168.08
             329.00,168.08 306.00,168.08 306.00,168.08
             297.59,171.40 296.10,176.73 296.00,185.00 Z
           M 124.00,168.00
           C 124.00,168.00 177.00,168.00 177.00,168.00
             179.34,168.00 182.81,167.81 184.85,169.02
             188.21,171.02 188.23,174.82 184.85,176.83
             182.54,178.21 178.65,178.00 176.00,178.00
             176.00,178.00 105.00,178.00 105.00,178.00
             99.32,177.90 91.76,175.17 98.23,169.02
             103.43,167.12 117.73,168.00 124.00,168.00 Z
           M 648.34,172.09
           C 649.43,175.41 646.88,177.23 643.98,177.89
             643.98,177.89 626.00,177.89 626.00,177.89
             626.00,177.89 626.00,168.00 626.00,168.00
             631.18,168.00 646.41,166.20 648.34,172.09 Z
           M 345.00,183.00
           C 345.00,183.00 398.00,183.00 398.00,183.00
             400.13,183.00 403.88,182.86 405.77,183.74
             409.22,185.34 409.40,189.35 406.44,191.57
             404.17,193.28 400.71,192.99 398.00,193.00
             398.00,193.00 326.00,193.00 326.00,193.00
             320.28,192.92 312.90,190.25 319.24,184.02
             324.41,182.12 338.75,183.00 345.00,183.00 Z
           M 519.00,219.44
           C 504.09,223.19 495.24,200.79 513.00,194.56
             531.34,191.76 534.13,215.64 519.00,219.44 Z
           M 459.00,212.53
           C 451.67,214.09 443.55,203.00 455.02,196.75
             467.37,194.43 469.17,210.35 459.00,212.53 Z
           M 484.00,212.53
           C 476.67,214.09 468.55,203.00 480.02,196.75
             492.37,194.43 494.17,210.35 484.00,212.53 Z
           M 347.00,200.00
           C 347.00,200.00 398.00,200.00 398.00,200.00
             400.71,200.01 404.17,199.72 406.44,201.43
             409.40,203.65 409.22,207.66 405.77,209.26
             403.88,210.14 400.13,210.00 398.00,210.00
             398.00,210.00 325.00,210.00 325.00,210.00
             316.78,209.84 313.96,204.89 320.19,200.74
             325.54,199.35 340.61,200.00 347.00,200.00 Z
           M 345.00,218.00
           C 345.00,218.00 398.00,218.00 398.00,218.00
             400.44,218.00 404.64,217.78 406.68,219.17
             409.79,221.30 408.14,225.33 405.52,227.01
             403.60,228.23 400.24,228.00 398.00,228.00
             398.00,228.00 326.00,228.00 326.00,228.00
             318.96,227.87 314.14,223.59 319.56,218.82
             324.35,217.26 339.12,218.00 345.00,218.00 Z
           M 127.00,243.00
           C 127.00,243.00 176.00,243.00 176.00,243.00
             178.98,243.01 182.53,242.72 185.07,244.55
             188.70,247.15 187.85,251.56 183.89,253.26
             181.86,254.14 178.25,254.00 176.00,254.00
             176.00,254.00 106.00,254.00 106.00,254.00
             94.55,253.84 92.53,247.23 100.05,243.65
             105.73,242.45 120.38,243.00 127.00,243.00 Z
           M 647.96,246.31
           C 649.80,249.23 648.02,252.61 644.89,253.79
             644.89,253.79 626.00,253.79 626.00,253.79
             626.00,253.79 626.00,244.00 626.00,244.00
             630.36,244.00 645.71,242.74 647.96,246.31 Z
           M 757.00,279.47
           C 740.76,283.22 731.76,258.70 751.00,252.53
             770.46,249.51 773.74,275.60 757.00,279.47 Z
           M 698.00,273.53
           C 690.67,275.09 682.55,264.00 694.02,257.75
             706.37,255.43 708.17,271.35 698.00,273.53 Z
           M 722.00,273.53
           C 714.67,275.09 706.55,264.00 718.02,257.75
             730.37,255.43 732.17,271.35 722.00,273.53 Z
           M 124.00,261.00
           C 124.00,261.00 177.00,261.00 177.00,261.00
             179.34,261.00 182.81,260.81 184.85,262.02
             188.66,264.29 188.01,268.76 183.94,270.40
             182.18,271.11 178.95,271.00 177.00,271.00
             177.00,271.00 105.00,271.00 105.00,271.00
             99.17,270.96 91.56,268.39 98.23,262.02
             103.43,260.12 117.73,261.00 124.00,261.00 Z
           M 643.98,261.14
           C 647.14,261.95 649.83,264.29 648.39,267.79
             646.40,272.58 630.74,271.00 626.00,271.00
             626.00,271.00 626.00,261.14 626.00,261.14
             626.00,261.14 643.98,261.14 643.98,261.14 Z
           M 296.00,295.00
           C 296.00,295.00 296.00,333.00 296.00,333.00
             296.06,337.38 296.59,342.19 299.65,345.61
             303.46,349.88 308.75,349.99 314.00,350.00
             314.00,350.00 497.00,350.00 497.00,350.00
             497.00,350.00 537.00,350.00 537.00,350.00
             541.21,349.99 545.30,350.22 548.78,347.35
             553.13,343.75 552.99,338.12 553.00,333.00
             553.00,333.00 553.00,291.00 553.00,291.00
             552.94,286.10 552.60,281.33 547.89,278.57
             544.11,276.36 536.48,277.00 532.00,277.00
             532.00,277.00 496.00,277.00 496.00,277.00
             496.00,277.00 368.00,277.00 368.00,277.00
             368.00,277.00 327.00,277.00 327.00,277.00
             321.11,277.00 310.35,276.55 305.04,277.51
             296.33,281.26 296.01,286.49 296.00,295.00 Z
           M 124.00,278.00
           C 124.00,278.00 176.00,278.00 176.00,278.00
             178.61,278.00 182.51,277.78 184.77,279.17
             188.51,281.47 188.17,286.09 182.98,287.86
             181.21,288.08 177.92,288.00 176.00,287.86
             176.00,287.86 104.00,287.86 104.00,287.86
             97.88,287.91 91.46,285.03 98.15,279.02
             103.52,277.11 117.60,278.00 124.00,278.00 Z
           M 648.34,282.09
           C 649.43,285.41 646.88,287.23 643.98,287.89
             643.98,287.89 626.00,287.89 626.00,287.89
             626.00,287.89 626.00,278.00 626.00,278.00
             631.18,278.00 646.41,276.20 648.34,282.09 Z
           M 333.00,286.00
           C 333.00,286.00 371.00,286.00 371.00,286.00
             371.00,286.00 491.00,286.00 491.00,286.00
             491.00,286.00 525.00,286.00 525.00,286.00
             529.44,286.00 535.94,285.30 539.67,287.80
             544.35,290.94 543.99,295.01 544.00,300.00
             544.00,300.00 544.00,328.00 544.00,328.00
             543.92,332.68 543.04,336.54 538.91,339.40
             536.20,341.27 533.12,340.99 530.00,341.00
             530.00,341.00 358.00,341.00 358.00,341.00
             358.00,341.00 327.00,341.00 327.00,341.00
             322.81,341.00 315.64,341.49 312.00,339.69
             306.10,336.76 306.01,332.77 306.00,327.00
             306.00,327.00 306.00,298.00 306.00,298.00
             306.03,291.74 305.97,289.58 312.02,286.70
             317.53,285.45 327.02,286.00 333.00,286.00 Z
           M 329.15,307.98
           C 331.20,309.19 334.65,309.00 337.00,309.00
             337.00,309.00 397.00,309.00 397.00,309.00
             399.26,309.00 402.78,309.21 404.72,307.98
             408.18,305.79 408.18,300.21 404.72,298.02
             402.78,296.79 399.26,297.00 397.00,297.00
             397.00,297.00 353.00,297.00 353.00,297.00
             347.02,297.00 335.34,296.44 330.06,297.60
             325.97,300.11 324.32,305.12 329.15,307.98 Z
           M 504.00,326.65
           C 519.36,324.08 518.52,300.04 500.00,301.35
             481.84,306.15 488.81,329.18 504.00,326.65 Z
           M 444.47,312.00
           C 443.33,317.33 448.67,322.67 454.00,321.53
             463.44,319.51 463.06,304.91 451.00,305.47
             447.72,306.74 445.28,308.24 444.47,312.00 Z
           M 465.47,312.00
           C 464.33,317.33 469.67,322.67 475.00,321.53
             484.44,319.51 484.06,304.91 472.00,305.47
             468.72,306.74 466.28,308.24 465.47,312.00 Z
           M 329.23,328.69
           C 331.66,330.21 335.21,329.99 338.00,330.00
             338.00,330.00 395.00,330.00 395.00,330.00
             398.34,329.99 401.96,330.25 404.77,328.11
             408.83,325.03 408.05,319.57 403.87,317.74
             401.88,316.86 398.22,317.00 396.00,317.14
             396.00,317.14 354.00,317.14 354.00,317.14
             354.00,317.14 331.02,317.14 331.02,317.14
             325.57,319.75 324.21,325.54 329.23,328.69 Z
           M 124.00,352.00
           C 124.00,352.00 177.00,352.00 177.00,352.00
             179.34,352.00 182.81,351.81 184.85,353.02
             188.21,355.02 188.23,358.82 184.85,360.83
             182.54,362.21 178.65,362.00 176.00,362.00
             176.00,362.00 104.00,362.00 104.00,362.00
             98.05,361.91 92.23,358.72 98.23,353.02
             103.43,351.12 117.73,352.00 124.00,352.00 Z
           M 644.00,352.11
           C 646.19,352.63 648.65,353.66 649.18,356.09
             649.79,358.90 647.37,360.87 644.96,361.79
             644.96,361.79 626.00,361.79 626.00,361.79
             626.00,361.79 626.00,352.11 626.00,352.11
             626.00,352.11 644.00,352.11 644.00,352.11 Z
           M 757.00,385.47
           C 740.76,389.22 731.76,364.70 751.00,358.53
             770.29,355.54 773.75,381.60 757.00,385.47 Z
           M 698.00,380.53
           C 690.67,382.09 682.55,371.00 694.02,364.75
             706.37,362.43 708.17,378.35 698.00,380.53 Z
           M 722.00,380.53
           C 714.67,382.09 706.55,371.00 718.02,364.75
             730.37,362.43 732.17,378.35 722.00,380.53 Z
           M 125.00,369.00
           C 125.00,369.00 176.00,369.00 176.00,369.00
             178.65,369.00 182.54,368.79 184.85,370.17
             188.23,372.18 188.21,375.98 184.85,377.98
             182.81,379.19 179.34,379.00 177.00,379.00
             177.00,379.00 104.00,379.00 104.00,379.00
             96.25,378.85 92.57,374.17 99.11,369.85
             104.68,368.26 118.51,369.00 125.00,369.00 Z
           M 643.98,369.21
           C 646.84,370.25 649.42,372.64 648.34,375.86
             646.46,381.49 630.97,380.00 626.00,380.00
             626.00,380.00 626.00,369.21 626.00,369.21
             626.00,369.21 643.98,369.21 643.98,369.21 Z
           M 127.00,386.00
           C 127.00,386.00 178.00,386.00 178.00,386.00
             179.72,386.00 183.11,385.86 184.61,386.57
             187.70,388.04 188.50,392.92 185.57,394.98
             183.79,396.22 180.13,396.00 178.00,396.00
             178.00,396.00 104.00,396.00 104.00,396.00
             93.51,395.85 93.55,389.75 100.05,386.65
             105.73,385.45 120.38,386.00 127.00,386.00 Z
           M 296.00,403.00
           C 296.00,403.00 296.00,440.00 296.00,440.00
             296.01,444.34 295.98,449.08 298.14,453.00
             301.79,459.62 306.26,459.99 313.00,460.00
             313.00,460.00 497.00,460.00 497.00,460.00
             497.00,460.00 533.00,460.00 533.00,460.00
             537.27,460.00 544.38,460.68 547.90,458.26
             552.97,454.78 552.99,449.47 553.00,444.00
             553.00,444.00 553.00,401.00 553.00,401.00
             552.93,395.67 552.26,390.92 546.98,388.17
             543.63,386.43 535.05,387.00 531.00,387.09
             531.00,387.09 496.00,387.09 496.00,387.09
             496.00,387.09 370.00,387.09 370.00,387.09
             370.00,387.09 306.00,387.09 306.00,387.09
             298.27,389.62 296.10,395.49 296.00,403.00 Z
           M 643.00,387.05
           C 645.52,387.39 648.32,388.23 648.92,391.09
             649.60,394.38 646.72,396.08 643.98,396.83
             643.98,396.83 626.00,396.83 626.00,396.83
             626.00,396.83 626.00,387.05 626.00,387.05
             626.00,387.05 643.00,387.05 643.00,387.05 Z
           M 345.00,402.00
           C 345.00,402.00 398.00,402.00 398.00,402.00
             399.95,402.00 403.18,401.89 404.94,402.60
             409.01,404.24 409.66,408.71 405.85,410.98
             403.81,412.19 400.34,412.00 398.00,412.00
             398.00,412.00 326.00,412.00 326.00,412.00
             320.28,411.92 312.90,409.25 319.24,403.02
             324.41,401.12 338.75,402.00 345.00,402.00 Z
           M 519.00,436.44
           C 504.09,440.19 495.24,417.79 513.00,411.56
             531.34,408.76 534.13,432.64 519.00,436.44 Z
           M 460.00,431.53
           C 452.67,433.09 444.55,422.00 456.02,415.75
             468.37,413.43 470.17,429.35 460.00,431.53 Z
           M 485.00,431.53
           C 477.67,433.09 469.55,422.00 481.02,415.75
             493.37,413.43 495.17,429.35 485.00,431.53 Z
           M 346.00,419.00
           C 346.00,419.00 397.00,419.00 397.00,419.00
             399.65,419.00 403.54,418.79 405.85,420.17
             409.23,422.18 409.21,425.98 405.85,427.98
             403.81,429.19 400.34,429.00 398.00,429.00
             398.00,429.00 325.00,429.00 325.00,429.00
             316.96,428.85 313.94,423.72 320.11,419.74
             325.57,418.36 339.61,419.00 346.00,419.00 Z
           M 346.00,436.00
           C 346.00,436.00 397.00,436.00 397.00,436.00
             399.64,436.00 403.55,435.79 405.80,437.17
             409.39,439.30 409.05,443.68 405.80,445.26
             403.90,446.14 400.09,446.00 398.00,446.00
             398.00,446.00 326.00,446.00 326.00,446.00
             316.27,445.86 314.97,440.54 320.23,436.74
             325.52,435.34 339.75,436.00 346.00,436.00 Z
           M 1.00,525.00
           C 1.00,525.00 1.00,475.00 1.00,475.00
             1.17,461.00 9.40,454.02 23.00,454.00
             23.00,454.00 228.00,454.00 228.00,454.00
             228.00,454.00 228.00,528.00 228.00,528.00
             215.45,528.59 207.30,534.90 207.00,548.00
             207.00,548.00 68.00,548.00 68.00,548.00
             68.00,548.00 36.00,548.00 36.00,548.00
             22.60,548.00 19.05,549.86 7.00,543.00
             7.00,543.00 8.00,541.00 8.00,541.00
             8.00,541.00 5.00,541.00 5.00,541.00
             3.82,534.88 1.02,538.33 1.00,525.00 Z
           M 811.00,454.00
           C 811.00,454.00 840.00,454.00 840.00,454.00
             844.60,454.00 851.90,453.51 856.00,455.23
             864.85,458.93 866.99,466.30 867.00,475.00
             867.00,475.00 867.00,527.00 867.00,527.00
             866.93,541.78 859.23,547.98 845.00,548.00
             845.00,548.00 642.00,548.00 642.00,548.00
             641.83,541.15 639.46,535.72 633.96,531.31
             627.04,525.77 624.03,531.69 624.00,519.00
             624.00,519.00 624.00,454.00 624.00,454.00
             624.00,454.00 811.00,454.00 811.00,454.00 Z
           M 601.00,637.00
           C 601.00,637.00 535.00,637.00 535.00,637.00
             535.00,637.00 290.00,637.00 290.00,637.00
             290.00,637.00 238.00,637.00 238.00,637.00
             229.77,636.96 219.61,633.75 216.80,624.99
             215.90,622.17 216.00,618.93 216.00,616.00
             216.00,616.00 216.00,558.00 216.00,558.00
             216.07,543.44 224.89,536.02 239.00,536.00
             239.00,536.00 542.00,536.00 542.00,536.00
             542.00,536.00 612.00,536.00 612.00,536.00
             627.60,536.08 632.98,545.64 633.00,560.00
             633.00,560.00 633.00,602.00 633.00,602.00
             633.00,616.48 635.53,622.14 626.00,634.00
             626.00,634.00 624.00,633.00 624.00,633.00
             620.07,639.03 607.54,637.00 601.00,637.00 Z" />
</svg>
